<?xml version="1.0" standalone="no"?>
<!DOCTYPE svg PUBLIC "-//W3C//DTD SVG 20010904//EN"
 "http://www.w3.org/TR/2001/REC-SVG-20010904/DTD/svg10.dtd">
<svg version="1.0" xmlns="http://www.w3.org/2000/svg"
 width="2081.000000pt" height="2081.000000pt" viewBox="0 0 2081.000000 2081.000000"
 preserveAspectRatio="xMidYMid meet">
<metadata>
Created by potrace 1.14, written by Peter Selinger 2001-2017
</metadata>
<g transform="translate(0.000000,2081.000000) scale(0.100000,-0.100000)"
fill="#000000" stroke="none">
<path d="M2770 18701 c0 -9 -2 -275 -5 -591 -2 -316 -6 -629 -9 -695 -3 -66
-7 -212 -11 -325 -3 -113 -8 -245 -10 -295 -2 -49 -6 -160 -10 -245 -3 -85 -7
-195 -10 -245 -3 -49 -7 -151 -10 -225 -8 -208 -14 -355 -20 -470 -3 -58 -8
-150 -10 -205 -2 -55 -7 -154 -10 -220 -3 -66 -8 -164 -10 -218 -3 -54 -7
-138 -10 -185 -2 -48 -7 -148 -10 -222 -3 -74 -8 -166 -10 -205 -2 -38 -6
-124 -10 -190 -3 -66 -8 -156 -10 -200 -3 -44 -7 -127 -10 -185 -2 -58 -7
-136 -10 -175 -2 -38 -7 -124 -10 -190 -3 -66 -8 -147 -10 -180 -2 -33 -6
-107 -10 -165 -3 -58 -8 -134 -10 -170 -2 -36 -7 -110 -10 -165 -3 -55 -8
-131 -11 -170 -2 -38 -6 -106 -9 -150 -3 -44 -7 -111 -10 -150 -7 -91 -12
-168 -20 -285 -4 -52 -8 -115 -10 -140 -2 -25 -7 -83 -10 -130 -4 -47 -8 -101
-10 -120 -2 -19 -6 -73 -10 -120 -3 -47 -8 -102 -11 -124 -2 -21 -6 -66 -9
-100 -3 -33 -7 -88 -10 -121 -3 -33 -8 -80 -10 -105 -5 -60 -15 -167 -20 -210
-2 -19 -6 -66 -10 -105 -3 -38 -8 -83 -10 -100 -2 -16 -6 -66 -10 -110 -3 -44
-8 -91 -10 -105 -3 -14 -7 -56 -11 -95 -3 -38 -7 -82 -9 -96 l-3 -26 291 4
c342 4 2016 4 2390 0 l257 -4 1 41 c0 23 2 77 4 121 2 44 7 163 10 265 4 102
8 219 10 260 3 71 10 245 20 515 2 66 7 181 10 255 3 74 8 191 10 260 12 331
16 422 20 515 6 127 17 421 29 755 3 85 8 207 11 270 3 63 7 178 10 255 9 237
15 390 20 462 4 68 11 168 21 318 2 43 6 81 8 82 4 4 467 -739 712 -1144 23
-38 126 -207 229 -378 239 -393 313 -517 353 -587 12 -21 32 -54 45 -75 23
-36 200 -333 237 -398 10 -16 79 -134 153 -262 130 -222 352 -607 405 -703 14
-25 43 -76 65 -115 22 -38 53 -95 69 -125 17 -30 49 -89 73 -130 43 -77 90
-163 165 -305 23 -44 51 -96 62 -116 l20 -36 361 4 c841 8 1157 9 1157 3 0 -3
-10 -16 -23 -30 -89 -97 -242 -301 -344 -460 -114 -177 -249 -440 -331 -640
-49 -122 -138 -372 -146 -414 -3 -12 -14 -55 -26 -96 -24 -82 -66 -266 -76
-325 -3 -21 -8 -47 -10 -59 -4 -20 -12 -66 -20 -110 -2 -10 -6 -44 -10 -75 -3
-31 -8 -65 -10 -76 -2 -10 -6 -49 -10 -85 -3 -36 -7 -75 -9 -87 -23 -142 -23
-820 0 -973 4 -29 18 -155 20 -185 1 -11 5 -36 8 -55 4 -19 9 -51 12 -70 21
-178 104 -517 172 -709 19 -53 36 -105 38 -116 3 -11 9 -29 15 -40 5 -11 30
-69 56 -130 256 -607 779 -1207 1429 -1636 72 -48 206 -130 228 -140 12 -5 37
-18 55 -29 170 -103 528 -257 797 -343 115 -37 374 -110 435 -122 8 -2 67 -15
130 -29 63 -15 129 -29 145 -31 17 -3 53 -10 80 -15 69 -14 80 -16 165 -30 41
-6 86 -14 100 -16 14 -2 48 -7 75 -10 28 -3 61 -7 75 -10 14 -2 50 -7 80 -9
30 -3 71 -8 90 -10 19 -3 64 -7 100 -10 36 -3 92 -7 125 -10 271 -23 936 -23
1120 -1 17 2 68 7 115 11 83 6 113 9 215 21 80 9 117 14 144 19 32 5 99 14
141 20 17 2 43 6 58 9 33 7 76 14 122 22 19 3 53 9 75 14 22 5 55 11 72 15 18
3 63 12 100 21 38 9 79 18 93 20 14 3 58 14 98 25 40 11 82 22 93 24 91 18
444 132 604 195 915 363 1636 972 2108 1781 194 332 358 737 456 1124 27 108
68 300 76 355 3 25 10 70 15 100 5 30 12 74 15 98 3 23 7 59 10 80 23 172 29
315 29 632 0 259 -4 378 -19 510 -9 85 -17 147 -21 171 -2 14 -6 41 -8 60 -5
41 -13 85 -27 159 -18 98 -20 105 -25 122 -3 10 -7 30 -10 45 -22 124 -117
424 -189 598 -399 963 -1230 1758 -2275 2173 -173 69 -521 180 -620 199 -14 2
-56 13 -95 23 -80 21 -398 86 -465 95 -25 3 -67 10 -95 15 -27 5 -74 12 -104
15 -30 4 -62 8 -71 10 -9 2 -43 6 -76 9 -32 4 -81 9 -109 12 -330 35 -969 40
-1320 10 -143 -13 -239 -23 -305 -32 -19 -3 -55 -7 -80 -10 -25 -3 -56 -7 -70
-9 -14 -2 -68 -11 -120 -20 -100 -16 -114 -18 -196 -35 -28 -6 -64 -13 -80
-16 -66 -11 -366 -85 -464 -114 -58 -17 -112 -33 -120 -35 -8 -2 -42 -13 -75
-25 -33 -11 -64 -22 -70 -23 -33 -9 -152 -51 -160 -57 -5 -3 -39 -17 -75 -29
-36 -13 -78 -29 -95 -36 -207 -90 -268 -118 -373 -170 l-124 -62 -60 86 c-33
47 -228 331 -434 631 -206 300 -381 553 -389 563 -8 9 -15 19 -15 22 0 3 -26
42 -58 87 -69 98 -143 206 -261 378 -46 69 -87 127 -90 130 -3 3 -33 45 -66
95 -74 110 -202 296 -213 310 -4 6 -37 53 -72 105 -35 52 -66 97 -70 100 -4 3
-9 12 -13 20 -4 8 -71 108 -149 222 -79 113 -165 241 -192 285 -113 184 -256
409 -266 420 -5 7 -10 15 -10 18 0 4 -13 25 -29 48 l-29 43 95 129 c208 285
350 475 429 575 46 58 114 144 151 191 38 47 80 101 95 120 15 19 68 86 118
149 50 63 97 122 104 131 7 8 46 58 86 110 41 52 77 96 80 99 3 3 46 57 95
120 50 63 95 122 102 130 60 74 385 485 407 515 17 22 33 42 36 45 3 3 21 25
40 50 19 25 37 47 40 50 3 3 21 25 40 50 38 48 37 48 103 130 43 54 266 336
312 395 13 17 81 102 151 190 69 88 185 234 257 325 169 213 258 327 335 422
34 43 62 81 62 86 0 4 -154 6 -342 4 -398 -5 -2212 -7 -2623 -3 -154 2 -285 3
-291 2 -6 0 -18 -13 -25 -28 -28 -54 -373 -574 -484 -728 -47 -66 -104 -147
-127 -180 -23 -33 -46 -64 -51 -70 -4 -5 -102 -143 -217 -305 -115 -162 -213
-299 -218 -305 -4 -5 -23 -32 -42 -60 -19 -27 -38 -54 -43 -60 -4 -5 -51 -71
-104 -145 -53 -74 -159 -222 -237 -328 -78 -107 -179 -246 -226 -311 -47 -64
-95 -130 -108 -147 -13 -16 -48 -63 -77 -104 -30 -41 -58 -79 -62 -85 -5 -5
-41 -55 -81 -110 -41 -55 -82 -111 -92 -125 -11 -14 -49 -65 -85 -115 -123
-167 -240 -326 -330 -449 -49 -67 -110 -150 -135 -184 -24 -34 -46 -62 -48
-62 -4 0 5 190 13 285 2 28 7 97 10 155 3 58 8 130 10 160 2 30 7 105 10 165
4 61 8 130 10 155 2 25 7 95 10 155 3 61 8 135 10 165 2 30 7 100 10 155 3 55
8 127 10 160 3 33 7 105 10 160 3 55 8 125 10 155 2 30 7 105 10 165 3 61 8
135 10 165 3 30 7 96 10 145 3 50 7 122 10 160 3 39 7 108 10 155 3 47 7 123
10 170 5 90 12 197 20 320 13 188 15 221 21 310 3 52 7 118 8 145 2 28 7 106
11 175 l7 126 -199 -4 c-268 -6 -2244 -6 -2515 0 -193 4 -218 2 -218 -11z
m11155 -8925 c39 -4 81 -8 95 -10 14 -3 43 -7 65 -10 110 -14 366 -77 430
-106 11 -5 56 -24 100 -41 298 -121 619 -362 790 -594 17 -22 32 -42 35 -45
13 -13 70 -99 70 -106 0 -4 6 -15 14 -23 22 -24 121 -218 162 -318 71 -170
140 -416 160 -568 3 -27 8 -59 10 -70 25 -130 25 -599 0 -731 -2 -10 -7 -41
-10 -68 -15 -111 -91 -422 -107 -440 -5 -6 -9 -16 -9 -24 0 -26 -100 -267
-159 -385 -216 -424 -545 -749 -966 -952 -196 -95 -327 -141 -510 -181 -301
-66 -658 -70 -975 -10 -83 16 -255 60 -295 76 -11 4 -69 27 -130 50 -292 113
-536 269 -740 474 -172 173 -276 328 -388 576 -78 173 -154 438 -173 605 -3
28 -7 56 -9 63 -23 70 -23 575 0 687 2 11 7 43 10 70 3 28 8 59 10 70 3 11 7
31 9 45 62 365 253 807 474 1100 229 303 561 556 922 705 149 61 365 120 515
141 22 3 51 7 65 10 14 2 68 6 120 10 52 4 96 7 97 8 5 4 249 -3 318 -8z"/>
</g>
</svg>
